<?xml version="1.0" standalone="no"?>
<!DOCTYPE svg PUBLIC "-//W3C//DTD SVG 20010904//EN"
 "http://www.w3.org/TR/2001/REC-SVG-20010904/DTD/svg10.dtd">
<svg version="1.0" xmlns="http://www.w3.org/2000/svg"
 width="160.000000pt" height="160.000000pt" viewBox="0 0 160.000000 160.000000"
 preserveAspectRatio="xMidYMid meet">
<metadata>
Created by potrace 1.11, written by Peter Selinger 2001-2013
</metadata>
<g transform="translate(0.000000,160.000000) scale(0.100000,-0.100000)"
fill="#000000" stroke="none">
<path d="M1293 1539 c-2 -29 -8 -32 -31 -20 -10 5 -53 9 -94 7 -59 -2 -89 -9
-139 -33 -65 -31 -152 -106 -203 -176 l-28 -39 -20 34 c-35 56 -137 146 -205
180 -116 57 -259 45 -360 -32 -109 -82 -157 -183 -157 -325 1 -128 57 -297
135 -407 l20 -28 -25 -10 c-14 -5 -55 -14 -91 -21 -36 -6 -67 -15 -70 -19 -3
-4 26 -17 64 -29 82 -25 176 -91 225 -158 38 -51 86 -160 86 -193 0 -40 17
-19 35 43 10 34 20 66 23 70 2 4 41 -32 86 -80 46 -48 122 -128 170 -178 l86
-90 87 91 c219 227 348 369 422 464 28 36 55 70 60 76 25 31 122 203 126 224
1 3 12 38 24 78 16 49 24 100 25 157 0 47 4 85 7 85 4 0 -2 17 -11 38 -10 20
-26 53 -35 73 -24 54 -82 117 -142 156 -41 26 -53 39 -53 58 0 30 -15 33 -17
4z"/>
</g>
</svg>
