<?xml version="1.0" standalone="no"?>
<!DOCTYPE svg PUBLIC "-//W3C//DTD SVG 20010904//EN"
 "http://www.w3.org/TR/2001/REC-SVG-20010904/DTD/svg10.dtd">
<svg version="1.0" xmlns="http://www.w3.org/2000/svg"
 width="500.000000pt" height="500.000000pt" viewBox="0 0 500.000000 500.000000"
 preserveAspectRatio="xMidYMid meet">
<metadata>
Created by potrace 1.11, written by Peter Selinger 2001-2013
</metadata>
<g transform="translate(0.000000,500.000000) scale(0.100000,-0.100000)"
fill="#000000" stroke="none">
<path d="M2300 4420 c-88 -11 -260 -53 -345 -85 -459 -172 -721 -582 -690
-1080 25 -415 186 -687 523 -886 112 -66 226 -116 410 -180 233 -80 412 -149
482 -184 78 -39 161 -111 195 -169 45 -76 50 -228 12 -303 -79 -149 -374 -208
-579 -116 -68 30 -140 102 -168 168 -36 84 -43 128 -41 278 l1 147 -450 0
-450 0 0 -200 c0 -282 33 -437 132 -618 178 -325 485 -536 883 -604 104 -17
149 -20 330 -15 297 7 477 43 663 134 316 154 514 430 576 803 34 212 29 445
-14 614 -41 160 -143 337 -258 448 -176 169 -341 254 -799 408 -443 150 -553
229 -553 398 0 77 16 118 65 165 53 51 130 78 246 84 155 9 253 -27 319 -118
44 -61 60 -126 67 -276 l6 -133 439 0 438 0 0 158 c0 171 -9 255 -41 376 -77
302 -296 560 -580 683 -96 41 -273 88 -391 103 -93 11 -329 11 -428 0z"/>
</g>
</svg>
